Der Fall Jakob von Metzler
==========================

ZDF, 2012


Dump aus der ZDF-Mediathek.

Ausgabe von ffprobe:
Input #0, mov,mp4,m4a,3gp,3g2,mj2, from 'Der Fall Jakob von Metzler (2012).mp4':
  Duration: 01:31:17.80, start: 0.000000, bitrate: 1594 kb/s
    Stream #0.0(und): Video: h264, yuv420p, 852x480, 25 tbr, 25 tbn, 50 tbc
    Stream #0.1(und): Audio: aac, 48000 Hz, stereo, s16



Der Fall Jakob von Metzler ist ein deutscher Spielfilm von Stephan Wagner aus dem Jahr 2012 mit Robert Atzorn, Uwe Bohm und Johannes Allmayer in den Hauptrollen. Er beschreibt den realen Mordfall Jakob von Metzler und den anschließenden Daschner-Prozess.
-- http://de.wikipedia.org/wiki/Der_Fall_Jakob_von_Metzler

 
http://www.zdf.de/ZDF/zdfportal/web/ZDF.de/Der-Fernsehfilm-der-Woche/2942312/23968126/1d4936/Der-Fall-Jakob-von-Metzler.html